<?xml version="1.0" standalone="no"?>
<!DOCTYPE svg PUBLIC "-//W3C//DTD SVG 20010904//EN"
 "http://www.w3.org/TR/2001/REC-SVG-20010904/DTD/svg10.dtd">
<svg version="1.0" xmlns="http://www.w3.org/2000/svg"
 width="1024.000000pt" height="1024.000000pt" viewBox="0 0 1024.000000 1024.000000"
 preserveAspectRatio="xMidYMid meet">
<metadata>
Created by potrace 1.14, written by Peter Selinger 2001-2017
</metadata>
<g transform="translate(0.000000,1024.000000) scale(0.100000,-0.100000)"
fill="#000000" stroke="none">
<path d="M7782 9838 c0 -79 -1 -148 -1 -153 -1 -6 -62 -10 -163 -10 l-163 0
-2 -110 c0 -60 -2 -120 -2 -131 -1 -21 -5 -21 -132 -20 -107 1 -132 -2 -138
-14 -4 -8 -7 -213 -6 -455 1 -299 -2 -442 -9 -447 -6 -4 -196 -8 -422 -8
l-412 0 0 128 c0 70 0 132 -1 138 -1 8 -338 11 -1186 11 l-1184 0 0 -86 c0
-47 0 -106 0 -131 l-1 -45 -472 0 -473 0 -2 385 c-1 212 -2 413 -3 447 l0 62
-137 3 -138 3 -1 120 c-1 66 -2 127 -3 135 -1 14 -21 16 -136 15 -83 0 -135 4
-136 10 0 6 -1 64 -1 130 0 66 -2 127 -4 136 -4 14 -64 16 -575 15 l-570 0 2
-134 c1 -88 -3 -138 -10 -145 -8 -8 -100 -11 -304 -11 l-292 0 1 -121 c0 -66
-1 -125 -3 -131 -2 -6 -48 -10 -124 -10 -67 1 -124 -1 -129 -4 -4 -3 -7 -468
-6 -1035 l1 -1030 122 0 123 0 1 -50 c1 -27 1 -102 0 -166 l-1 -115 310 0 310
1 1 -40 c2 -144 -1 -348 -6 -353 -3 -3 -71 -5 -150 -5 l-145 1 0 -91 c0 -51
-1 -228 -1 -394 -1 -271 -2 -302 -17 -309 -10 -4 -75 -8 -147 -10 -71 -1 -132
-3 -135 -3 -3 -1 -5 -201 -5 -446 1 -393 -1 -445 -15 -446 -8 0 -70 -1 -137
-1 l-123 -1 0 -718 0 -719 130 1 c72 0 134 -2 138 -5 4 -3 8 -68 7 -146 -1
-119 1 -143 14 -148 9 -4 78 -7 153 -7 l136 1 1 -295 c0 -163 0 -318 1 -344 0
-44 2 -48 23 -47 12 1 77 2 144 1 l121 -1 0 -170 c0 -94 3 -174 6 -178 4 -4
134 -7 289 -7 l282 0 2 -175 c1 -96 2 -185 2 -197 1 -23 2 -23 146 -23 l146 0
-1 -97 c-1 -54 -1 -125 -1 -159 l1 -60 427 0 428 0 1 -139 c1 -77 2 -143 3
-146 0 -3 94 -5 209 -5 114 1 216 0 227 -2 20 -3 21 -10 20 -135 0 -73 1 -137
2 -142 3 -7 83 -11 238 -10 l235 0 1 -45 c0 -25 1 -88 2 -140 l2 -94 413 0
412 0 0 -158 0 -158 625 0 c493 0 625 3 626 13 1 6 2 73 3 147 2 74 4 140 4
146 1 6 51 10 142 10 l140 -1 1 25 c0 14 1 77 2 140 l2 114 197 1 c108 0 199
3 203 7 4 3 7 68 8 144 l2 138 350 0 c193 0 352 3 355 7 3 4 5 68 4 143 -1
118 1 136 15 137 9 1 144 2 301 3 l285 1 2 235 c1 129 2 366 2 526 l1 291 580
0 c319 0 583 3 587 6 3 4 6 158 5 342 0 184 3 335 6 336 4 1 72 2 152 3 l145
1 0 158 0 157 145 0 145 0 0 717 0 718 -145 2 c-80 1 -148 2 -151 2 -3 1 -6
198 -7 439 0 240 -1 444 -1 453 -1 13 -21 15 -143 15 l-143 0 -2 385 c-1 211
-2 390 -2 396 -1 9 -34 12 -128 12 -71 -1 -133 -1 -138 0 -6 1 -10 72 -9 194
1 105 2 194 3 197 0 3 130 5 288 5 l288 0 0 165 0 164 151 0 151 0 0 1027 0
1027 -21 4 c-12 2 -37 1 -56 -2 -19 -3 -77 -3 -130 0 l-95 5 0 135 0 135 -282
1 c-155 0 -286 4 -290 8 -4 4 -9 66 -9 137 -1 71 -2 136 -3 144 -1 13 -73 15
-584 15 l-584 0 -1 -142z"/>
</g>
</svg>
